<svg width="848" height="316" viewBox="0 0 848 316" fill="none" xmlns="http://www.w3.org/2000/svg">
<path d="M81 240.667C81 240.667 85 240.667 85 232.5C85 224.333 81 224.333 81 224.333H94V240.667H81ZM113 174.167C113 174.167 117 174.167 117 166C117 157.833 113 157.833 113 157.833H126V174.167H113ZM80 107.667C80 107.667 84 107.667 84 99.5C84 91.333 80 91.333 80 91.333H93V107.667H80ZM95 208C95 208 99 207.9 99 199.833C99 190.504 95 190.5 95 190.5H110V208H95ZM95 141.5C95 141.5 99 141.4 99 133.333C99 124 95 124 95 124H110V141.5H95ZM65.868 75H95.132C98.9251 75 102 78.0749 102 81.868V84.476C102 86.2975 101.276 88.0444 99.9884 89.3324C98.7004 90.6204 96.9535 91.344 95.132 91.344H65.868C62.0749 91.344 59 88.2691 59 84.476V81.868C59 80.0465 59.7236 78.2996 61.0116 77.0116C62.2996 75.7236 64.0465 75 65.868 75V75ZM44.68 75H48.38C52.1731 75 55.248 78.0749 55.248 81.868V84.168C55.248 87.9611 52.1731 91.036 48.38 91.036H44.68C42.8586 91.036 41.1118 90.3124 39.8239 89.0243C38.5361 87.7363 37.8127 85.9894 37.813 84.168V81.868C37.8127 80.0466 38.5361 78.2997 39.8239 77.0117C41.1118 75.7236 42.8586 75 44.68 75V75ZM37.868 107.656H109.132C112.925 107.656 116 110.731 116 114.524V117.132C116 120.925 112.925 124 109.132 124H37.868C34.0749 124 31 120.925 31 117.132V114.524C31 110.731 34.0749 107.656 37.868 107.656ZM66.868 141.5H124.132C127.925 141.5 131 144.575 131 148.368V150.976C131 154.769 127.925 157.844 124.132 157.844H66.868C63.0749 157.844 60 154.769 60 150.976V148.368C60 144.575 63.0749 141.5 66.868 141.5ZM26.243 141.375H50.32C54.1131 141.375 57.188 144.45 57.188 148.243V150.57C57.188 154.363 54.1131 157.438 50.32 157.438H26.243C22.4499 157.438 19.375 154.363 19.375 150.57V148.243C19.375 144.45 22.4499 141.375 26.243 141.375ZM6.868 174.156H124.132C127.925 174.156 131 177.231 131 181.024V183.632C131 187.425 127.925 190.5 124.132 190.5H6.868C3.07491 190.5 0 187.425 0 183.632V181.024C0 177.231 3.07491 174.156 6.868 174.156ZM36.868 208H109.132C112.925 208 116 211.075 116 214.868V217.476C116 221.269 112.925 224.344 109.132 224.344H36.868C33.0749 224.344 30 221.269 30 217.476V214.868C30 211.075 33.0749 208 36.868 208ZM54.868 240.656H95.132C98.9251 240.656 102 243.731 102 247.524V250.132C102 253.925 98.9251 257 95.132 257H54.868C51.0749 257 48 253.925 48 250.132V247.524C48 243.731 51.0749 240.656 54.868 240.656ZM26.243 240.969H36.757C40.5501 240.969 43.625 244.044 43.625 247.837V250.137C43.6222 253.928 40.5481 257 36.757 257H26.243C22.4499 257 19.375 253.925 19.375 250.132V247.832C19.3778 244.041 22.4519 240.969 26.243 240.969Z" fill="#FF5C00"/>
<path d="M211 75L121 257H75L120 166L75 75H121L143 120.5L165 75H211Z" fill="#FF5C00"/>
<path d="M251 259.5C240.667 259.5 231.167 257.083 222.5 252.25C213.833 247.25 206.917 240.75 201.75 232.75C196.583 224.75 194 216.167 194 207V150C194 147 195.917 144.25 199.75 141.75C203.583 139.25 208.167 138 213.5 138C218.667 138 223.167 139.25 227 141.75C230.833 144.25 232.75 147 232.75 150V207C232.75 211.667 234.5 216 238 220C241.667 223.833 246 225.75 251 225.75C256 225.75 260.25 223.833 263.75 220C267.25 216 269 211.667 269 207V149.75C269 146.583 270.917 143.833 274.75 141.5C278.75 139.167 283.333 138 288.5 138C294.167 138 298.75 139.167 302.25 141.5C305.917 143.833 307.75 146.583 307.75 149.75V207C307.75 216.333 305.167 225 300 233C294.833 241 287.917 247.417 279.25 252.25C270.75 257.083 261.333 259.5 251 259.5ZM348.289 257C342.622 257 337.956 255.75 334.289 253.25C330.789 250.75 329.039 248 329.039 245V149.75C329.039 146.25 330.789 143.417 334.289 141.25C337.956 139.083 342.622 138 348.289 138C352.956 138 356.956 139.083 360.289 141.25C363.622 143.417 365.289 146.25 365.289 149.75V155.5C368.122 150.667 372.289 146.333 377.789 142.5C383.289 138.5 390.122 136.5 398.289 136.5C405.122 136.5 411.122 138.833 416.289 143.5C421.456 148.167 425.289 154.167 427.789 161.5C432.122 153 437.622 146.75 444.289 142.75C451.122 138.583 458.122 136.5 465.289 136.5C473.122 136.5 480.456 138.583 487.289 142.75C494.289 146.75 499.956 152.667 504.289 160.5C508.622 168.333 510.789 177.833 510.789 189V245C510.789 248 508.872 250.75 505.039 253.25C501.206 255.75 496.622 257 491.289 257C486.122 257 481.622 255.75 477.789 253.25C473.956 250.75 472.039 248 472.039 245V189C472.039 182.667 470.289 177.917 466.789 174.75C463.456 171.583 459.622 170 455.289 170C451.289 170 447.622 171.583 444.289 174.75C440.956 177.917 439.289 182.667 439.289 189V245.25C439.289 249.417 437.206 252.417 433.039 254.25C429.039 256.083 424.622 257 419.789 257C415.289 257 410.956 256.083 406.789 254.25C402.622 252.417 400.539 249.417 400.539 245.25V189.25C400.539 182.917 398.789 178.167 395.289 175C391.789 171.833 387.872 170.25 383.539 170.25C379.539 170.25 375.872 171.833 372.539 175C369.372 178 367.789 182.667 367.789 189V245C367.789 248 365.872 250.75 362.039 253.25C358.206 255.75 353.622 257 348.289 257ZM551.658 257C545.992 257 541.325 255.75 537.658 253.25C534.158 250.75 532.408 248 532.408 245V149.75C532.408 146.25 534.158 143.417 537.658 141.25C541.325 139.083 545.992 138 551.658 138C556.325 138 560.325 139.083 563.658 141.25C566.992 143.417 568.658 146.25 568.658 149.75V155.5C571.492 150.667 575.658 146.333 581.158 142.5C586.658 138.5 593.492 136.5 601.658 136.5C608.492 136.5 614.492 138.833 619.658 143.5C624.825 148.167 628.658 154.167 631.158 161.5C635.492 153 640.992 146.75 647.658 142.75C654.492 138.583 661.492 136.5 668.658 136.5C676.492 136.5 683.825 138.583 690.658 142.75C697.658 146.75 703.325 152.667 707.658 160.5C711.992 168.333 714.158 177.833 714.158 189V245C714.158 248 712.242 250.75 708.408 253.25C704.575 255.75 699.992 257 694.658 257C689.492 257 684.992 255.75 681.158 253.25C677.325 250.75 675.408 248 675.408 245V189C675.408 182.667 673.658 177.917 670.158 174.75C666.825 171.583 662.992 170 658.658 170C654.658 170 650.992 171.583 647.658 174.75C644.325 177.917 642.658 182.667 642.658 189V245.25C642.658 249.417 640.575 252.417 636.408 254.25C632.408 256.083 627.992 257 623.158 257C618.658 257 614.325 256.083 610.158 254.25C605.992 252.417 603.908 249.417 603.908 245.25V189.25C603.908 182.917 602.158 178.167 598.658 175C595.158 171.833 591.242 170.25 586.908 170.25C582.908 170.25 579.242 171.833 575.908 175C572.742 178 571.158 182.667 571.158 189V245C571.158 248 569.242 250.75 565.408 253.25C561.575 255.75 556.992 257 551.658 257ZM741.063 311.25C736.063 311.25 731.813 310.333 728.313 308.5C724.979 306.667 723.313 302.083 723.313 294.75C723.313 290.417 723.979 286.667 725.313 283.5C726.813 280.333 729.313 278.75 732.813 278.75C735.146 278.75 738.229 278.5 742.063 278C745.896 277.667 749.813 276.5 753.813 274.5C757.979 272.667 761.396 269.5 764.063 265C766.896 260.667 768.313 254.583 768.313 246.75L724.563 159.75C723.729 158.083 723.313 156.417 723.313 154.75C723.313 151.417 724.813 148.333 727.813 145.5C730.813 142.667 734.313 140.417 738.313 138.75C742.479 137.083 746.229 136.25 749.563 136.25C751.896 136.25 754.063 136.75 756.062 137.75C758.063 138.583 759.479 140.167 760.313 142.5L788.563 210.25L809.313 142.5C810.146 140.167 811.479 138.583 813.313 137.75C815.313 136.75 817.313 136.25 819.313 136.25C822.313 136.25 825.896 137.167 830.063 139C834.396 140.667 838.146 142.917 841.313 145.75C844.479 148.583 846.063 151.833 846.063 155.5C846.063 157.167 845.729 158.583 845.063 159.75L809.563 248.25C806.396 256.083 803.396 263.75 800.563 271.25C797.729 278.75 794.063 285.5 789.563 291.5C785.229 297.5 779.229 302.25 771.563 305.75C763.896 309.417 753.729 311.25 741.063 311.25Z" fill="#333333"/>
</svg>
