<svg width="32" height="22" viewBox="0 0 32 22" fill="none" xmlns="http://www.w3.org/2000/svg">
<path fill-rule="evenodd" clip-rule="evenodd" d="M4 0H23.3C23.9998 2.54795e-05 24.6873 0.183627 25.2939 0.532472C25.9005 0.881317 26.405 1.3832 26.757 1.988L30.83 8.988C31.1855 9.59892 31.3729 10.2931 31.3729 11C31.3729 11.7069 31.1855 12.4011 30.83 13.012L26.757 20.012C26.405 20.6168 25.9005 21.1187 25.2939 21.4675C24.6873 21.8164 23.9998 22 23.3 22H4C2.93913 22 1.92172 21.5786 1.17157 20.8284C0.421427 20.0783 0 19.0609 0 18V4C0 2.93913 0.421427 1.92172 1.17157 1.17157C1.92172 0.421427 2.93913 0 4 0V0Z" fill="#FF6500"/>
<path d="M12.857 10.143C12.857 10.903 11.714 11.598 11.714 12.69C11.714 13.31 12.213 13.5 12.857 13.5H14C15.126 13.5 20.08 8.95801 19.142 6.51001" stroke="white" stroke-linejoin="round"/>
<path d="M20.189 14.41C20.3233 14.6369 20.4034 14.8916 20.4232 15.1545C20.4429 15.4174 20.4018 15.6813 20.303 15.9256C20.2042 16.17 20.0503 16.3883 19.8534 16.5635C19.6564 16.7388 19.4217 16.8662 19.1675 16.936C18.9133 17.0057 18.6464 17.0159 18.3877 16.9657C18.1289 16.9155 17.8852 16.8063 17.6754 16.6466C17.4657 16.4869 17.2957 16.2809 17.1786 16.0448C17.0614 15.8086 17.0003 15.5486 17 15.285C17 15.103 17.132 14.668 17.333 14.487" stroke="white" stroke-linecap="round" stroke-linejoin="round"/>
<path fill-rule="evenodd" clip-rule="evenodd" d="M17.015 5.005C19.789 5.04 21.84 12.494 21.84 14.086C21.84 14.382 21.652 14.66 21.277 14.921C20.605 14.307 20.404 14.412 20.115 14.412L17.015 5.005ZM17.015 15.106C16.733 15.568 14.19 15.499 13.763 15.5L17.015 15.106ZM12.686 10.605L8.45099 10.487C8.35425 10.4871 8.25844 10.4682 8.16903 10.4313C8.07962 10.3943 7.99836 10.3401 7.92991 10.2718C7.86146 10.2034 7.80716 10.1223 7.77011 10.0329C7.73306 9.94353 7.71399 9.84774 7.71399 9.75101V9.557C7.71399 9.132 8.10399 8.45101 8.52799 8.47701L12.497 9.028C12.885 9.053 12.974 9.40801 12.974 9.79801C12.974 10.205 13.093 10.605 12.686 10.605V10.605Z" stroke="white"/>
<path d="M7.52502 13.729C7.43402 13.779 7.31302 13.873 7.16502 14.011C7.00502 14.173 6.91702 14.265 6.90202 14.287C6.6879 14.5761 6.57222 14.9263 6.57202 15.286C6.57202 15.7406 6.7526 16.1765 7.07404 16.498C7.39548 16.8194 7.83144 17 8.28602 17C8.7406 17 9.17657 16.8194 9.498 16.498C9.81944 16.1765 10 15.7406 10 15.286" stroke="white" stroke-linecap="round"/>
<path d="M17.043 5H15M8.286 10.143C8.286 11.286 6 11.79 6 13.798C6 13.798 6.428 14.09 6.946 14.318L8.286 10.143ZM10.012 15.295C10.55 15.42 11.079 15.5 11.554 15.5H14.759L10.012 15.295Z" stroke="white"/>
</svg>
